<?xml version="1.0" standalone="no"?>
<!DOCTYPE svg PUBLIC "-//W3C//DTD SVG 20010904//EN"
 "http://www.w3.org/TR/2001/REC-SVG-20010904/DTD/svg10.dtd">
<svg version="1.0" xmlns="http://www.w3.org/2000/svg"
 width="1024.000000pt" height="1024.000000pt" viewBox="0 0 1024.000000 1024.000000"
 preserveAspectRatio="xMidYMid meet">

<g transform="translate(0.000000,1024.000000) scale(0.100000,-0.100000)"
fill="#000000" stroke="none">
<path d="M2454 8530 c-61 -24 -133 -156 -185 -335 -85 -298 -113 -519 -114
-895 0 -331 11 -449 77 -799 l31 -165 -91 -176 c-212 -412 -297 -724 -309
-1140 -15 -535 123 -1009 430 -1479 118 -180 221 -307 376 -461 299 -298 639
-524 1087 -722 40 -18 98 -61 175 -128 197 -174 374 -275 643 -367 182 -62
299 -78 571 -77 222 0 250 2 366 27 163 34 273 73 434 152 166 81 252 139 398
268 113 100 123 106 280 177 263 119 460 235 655 385 387 300 629 592 858
1040 99 193 141 304 193 507 114 447 107 858 -23 1303 -51 174 -105 306 -208
507 l-92 178 27 137 c125 633 114 1231 -32 1738 -67 230 -138 335 -227 335
-71 0 -404 -161 -584 -281 -256 -172 -536 -425 -754 -682 -27 -31 -59 -60 -72
-63 -13 -3 -81 8 -151 25 -150 35 -448 85 -653 109 -215 25 -800 24 -960 -1
-109 -18 -431 -85 -586 -123 -39 -9 -82 -14 -96 -11 -16 4 -58 43 -106 99
-196 228 -555 539 -785 680 -85 52 -416 217 -476 237 -39 13 -67 13 -97 1z
m4048 -1720 c43 0 77 -3 77 -7 -1 -5 -1 -76 0 -159 l1 -152 68 -12 c206 -39
362 -125 489 -273 90 -104 143 -221 167 -374 l6 -33 -89 0 c-48 0 -135 -3
-193 -6 l-105 -7 -12 49 c-29 117 -107 197 -230 238 -44 14 -85 26 -91 26 -7
0 -10 -110 -10 -332 l0 -333 118 -33 c67 -18 166 -56 231 -88 99 -49 125 -67
196 -137 91 -92 134 -166 165 -288 24 -90 26 -219 5 -308 -33 -137 -146 -302
-274 -395 -96 -71 -265 -138 -403 -161 l-38 -6 0 -144 0 -145 -185 0 -185 0 0
144 0 144 -57 7 c-217 27 -442 141 -561 284 -95 114 -142 239 -142 377 l0 64
93 0 c52 0 134 -3 184 -6 l90 -7 12 -51 c32 -138 139 -231 314 -269 l67 -15 0
359 0 359 -27 6 c-274 61 -397 118 -510 238 -72 76 -131 187 -153 287 -20 89
-8 259 22 341 91 244 312 429 582 487 l81 18 3 163 3 163 106 -6 c58 -4 141
-7 185 -7z m-2462 -159 l0 -160 58 -11 c126 -25 181 -43 269 -86 211 -104 369
-318 399 -542 l6 -50 -113 -7 c-63 -3 -150 -5 -194 -3 l-79 3 -8 38 c-17 84
-81 168 -157 207 -22 10 -71 28 -110 39 l-71 20 0 -333 0 -332 133 -37 c283
-80 450 -197 537 -378 162 -338 27 -718 -320 -898 -77 -41 -208 -84 -293 -96
l-46 -7 -3 -142 -3 -141 -182 -3 -182 -2 -3 142 -3 141 -90 18 c-125 25 -188
45 -279 90 -99 50 -160 94 -229 169 -61 66 -107 140 -132 215 -22 65 -40 224
-27 237 14 14 363 -1 367 -16 22 -86 42 -133 74 -173 61 -77 129 -111 294
-147 l27 -6 -2 356 -3 357 -130 34 c-297 76 -464 209 -540 430 -113 325 75
697 426 845 38 16 108 39 155 51 l86 22 -1 158 -2 157 186 0 185 0 0 -159z
m1456 -2778 c81 -43 123 -122 104 -194 -17 -61 -82 -148 -195 -257 -148 -145
-169 -193 -136 -302 44 -142 178 -294 316 -360 169 -80 345 -74 572 21 75 31
68 -40 -10 -116 -103 -100 -277 -162 -422 -151 -201 15 -379 102 -539 265
l-59 60 -79 -74 c-43 -41 -112 -96 -152 -123 -143 -96 -355 -149 -493 -123
-159 29 -353 160 -353 238 0 35 25 38 88 10 137 -61 319 -79 450 -44 163 44
285 145 365 305 89 177 77 217 -122 425 -134 140 -171 197 -171 262 0 46 38
115 77 140 62 41 96 44 413 42 293 -2 307 -3 346 -24z"/>
<path d="M6137 6079 c-75 -25 -123 -56 -169 -107 -171 -189 -80 -377 215 -446
l27 -6 0 290 c0 159 -3 290 -7 290 -5 -1 -34 -10 -66 -21z"/>
<path d="M6580 4719 l0 -311 33 7 c162 32 275 117 315 234 39 112 -18 238
-138 308 -39 23 -173 73 -196 73 -12 0 -14 -47 -14 -311z"/>
<path d="M3579 6066 c-100 -40 -163 -99 -205 -190 -67 -144 23 -280 225 -340
30 -9 61 -16 68 -16 10 0 13 56 13 285 l0 285 -22 0 c-13 0 -48 -11 -79 -24z"/>
<path d="M4045 4720 c0 -350 -8 -322 86 -294 117 35 206 100 251 186 29 55 31
166 5 215 -25 48 -91 107 -150 136 -46 22 -170 67 -186 67 -3 0 -6 -139 -6
-310z"/>
</g>
</svg>
